<?xml version="1.0" standalone="no"?>
<!DOCTYPE svg PUBLIC "-//W3C//DTD SVG 20010904//EN"
 "http://www.w3.org/TR/2001/REC-SVG-20010904/DTD/svg10.dtd">
<svg version="1.0" xmlns="http://www.w3.org/2000/svg"
 width="1640.000000pt" height="1640.000000pt" viewBox="0 0 1640.000000 1640.000000"
 preserveAspectRatio="xMidYMid meet">
<metadata>
Created by potrace 1.14, written by Peter Selinger 2001-2017
</metadata>
<g transform="translate(0.000000,1640.000000) scale(0.100000,-0.100000)"
fill="#000000" stroke="none">
<path d="M8995 16373 c-47 -50 -53 -68 -70 -213 -7 -61 -65 -527 -71 -570 -12
-89 -16 -117 -20 -145 -10 -68 -36 -207 -59 -310 -25 -117 -27 -130 -50 -325
-25 -201 -30 -317 -30 -640 0 -269 7 -451 19 -515 2 -11 7 -40 11 -65 4 -25 9
-52 10 -60 1 -8 6 -35 10 -60 3 -25 10 -58 15 -75 4 -16 20 -82 36 -146 l27
-116 -17 -69 c-27 -107 -37 -171 -42 -269 -5 -91 -19 -149 -35 -139 -5 3 -16
31 -25 62 -36 131 -151 468 -211 622 -92 233 -244 540 -427 860 -172 298 -221
378 -304 485 -144 186 -460 445 -542 445 -38 0 -22 -44 83 -226 195 -339 290
-509 435 -774 13 -25 32 -58 42 -75 10 -16 31 -55 48 -85 145 -266 400 -716
528 -933 35 -59 64 -109 64 -112 0 -2 59 -93 131 -200 72 -108 137 -212 145
-231 11 -27 13 -56 8 -120 l-7 -84 27 0 c34 0 113 40 190 97 34 24 133 94 221
155 195 136 236 168 429 343 6 6 90 78 186 160 300 257 468 434 678 714 116
156 173 255 186 325 10 54 43 124 153 328 91 171 145 291 158 354 18 87 18 91
-4 113 -29 29 -58 16 -101 -46 -91 -132 -283 -387 -351 -468 -42 -49 -213
-228 -380 -396 -371 -373 -590 -601 -729 -759 -41 -46 -95 -105 -118 -130 -58
-59 -255 -313 -368 -470 -49 -69 -97 -137 -107 -150 -17 -25 -17 -25 -12 30 3
30 10 80 15 110 5 30 14 93 20 140 35 292 27 270 139 375 198 187 269 272 416
500 32 50 66 102 76 116 43 65 349 664 349 685 0 1 18 42 41 91 104 224 137
314 306 853 59 189 154 525 179 630 37 161 23 249 -40 250 -38 0 -222 -220
-425 -510 -133 -189 -301 -454 -290 -458 4 -2 24 6 45 17 21 12 42 21 46 21 4
0 -14 -37 -39 -82 -101 -182 -220 -450 -385 -863 -54 -137 -107 -269 -116
-292 -9 -24 -20 -43 -24 -43 -4 0 -5 45 -3 101 4 90 7 122 20 209 27 183 57
378 65 430 6 36 13 81 15 100 3 19 7 49 10 65 4 27 15 258 20 405 1 49 -9 95
-25 110 -3 3 -6 16 -7 30 -1 14 -12 86 -24 160 -11 74 -27 173 -34 220 -11 71
-14 273 -4 355 1 11 -4 36 -11 55 -40 108 -47 124 -57 127 -6 2 -23 -9 -38
-24z"/>
<path d="M6609 14926 c-3 -4 -2 -33 2 -65 10 -68 60 -189 192 -461 52 -107
106 -222 120 -255 57 -134 304 -641 327 -670 5 -5 30 -53 58 -105 80 -154 100
-187 207 -350 56 -85 151 -216 210 -289 60 -74 200 -261 312 -415 112 -155
216 -296 231 -315 126 -160 272 -331 281 -331 4 0 14 -13 24 -29 19 -33 18
-87 -8 -261 -7 -52 -19 -149 -25 -215 -19 -196 -20 -203 -37 -209 -9 -4 -17
-5 -18 -4 -2 2 -48 94 -104 206 -55 111 -114 226 -130 255 -121 219 -195 346
-285 492 -30 50 -67 110 -82 135 -73 121 -187 292 -293 440 -77 108 -286 393
-308 420 -7 8 -67 85 -134 170 -339 432 -655 794 -964 1105 -196 196 -265 261
-420 390 -33 28 -62 52 -65 56 -15 16 -80 60 -80 54 0 -14 82 -200 108 -245
54 -93 193 -301 318 -475 71 -99 171 -247 222 -330 195 -315 332 -516 580
-850 191 -257 412 -540 512 -655 31 -36 127 -150 214 -253 86 -103 165 -198
176 -210 69 -81 341 -403 382 -452 28 -33 59 -71 71 -85 11 -13 79 -93 150
-178 l129 -154 0 -71 c1 -71 -9 -228 -17 -277 -2 -14 -7 -54 -11 -90 -3 -36
-8 -78 -10 -95 -2 -16 -6 -55 -10 -85 -3 -30 -10 -61 -14 -68 -10 -20 -59 42
-102 131 -19 40 -51 104 -70 144 -20 40 -60 107 -89 149 -47 66 -412 533 -473
604 -11 14 -37 45 -56 70 -40 52 -55 69 -175 205 -104 117 -275 290 -360 365
-33 29 -74 65 -91 80 -16 15 -75 62 -130 104 -54 43 -117 94 -139 115 -151
138 -345 291 -485 383 -30 20 -127 73 -215 118 -88 46 -207 107 -264 137 -192
99 -431 199 -576 240 -215 60 -286 74 -410 78 -111 3 -138 -5 -133 -42 2 -22
17 -34 83 -69 44 -23 150 -73 235 -109 232 -100 466 -216 550 -273 42 -28 106
-80 143 -116 37 -36 71 -66 75 -66 4 0 70 -64 147 -141 77 -78 185 -182 240
-232 55 -49 118 -106 139 -126 73 -66 200 -171 395 -328 487 -390 513 -413
851 -752 157 -158 304 -303 327 -323 23 -19 91 -80 150 -134 60 -55 151 -137
203 -184 52 -47 120 -109 152 -139 l57 -53 -1 -227 c-1 -217 -13 -355 -37
-413 -21 -54 -44 -36 -126 95 -73 115 -261 391 -329 483 -17 23 -40 54 -51 69
-30 42 -242 314 -283 365 -72 88 -118 137 -287 305 -208 209 -266 262 -475
440 -91 76 -183 156 -205 176 -245 227 -497 411 -1047 762 -312 199 -401 249
-613 342 -276 122 -447 168 -615 169 -111 0 -156 -14 -141 -42 28 -53 112
-112 353 -249 288 -164 381 -229 541 -378 18 -16 59 -54 92 -84 70 -63 283
-262 329 -306 17 -17 65 -60 106 -95 41 -35 98 -85 125 -111 28 -25 70 -64 96
-85 25 -22 71 -61 103 -89 77 -66 64 -55 297 -250 193 -162 682 -577 705 -599
188 -177 869 -736 1189 -974 83 -62 167 -126 187 -143 l37 -30 -4 -232 c-9
-418 -16 -498 -45 -530 -4 -5 -40 36 -81 90 -128 171 -427 545 -458 573 -3 3
-35 39 -71 80 -258 298 -395 419 -860 764 -80 59 -152 113 -160 119 -8 7 -48
35 -88 62 -40 28 -102 70 -138 95 -212 148 -351 237 -619 397 -165 99 -348
210 -408 246 -59 36 -126 72 -150 81 -864 317 -944 343 -1262 408 -247 50
-395 59 -463 28 -55 -25 -53 -42 13 -92 109 -82 286 -168 570 -278 174 -67
395 -170 481 -225 32 -21 147 -101 254 -179 107 -78 254 -184 325 -236 72 -51
236 -173 365 -270 277 -207 627 -462 795 -580 236 -165 1639 -1095 1788 -1186
55 -32 115 -73 135 -90 l37 -32 0 -353 c0 -195 -4 -371 -8 -392 l-8 -38 -32
24 c-35 26 -162 156 -248 252 -51 56 -281 294 -484 498 -191 193 -560 472
-889 674 -401 246 -1029 519 -1601 696 -219 68 -536 124 -810 142 -38 2 -117
8 -175 12 -323 22 -480 -7 -747 -139 -73 -36 -82 -43 -64 -50 12 -4 140 -9
284 -12 290 -4 297 -5 452 -76 11 -5 63 -28 115 -50 52 -23 131 -61 175 -84
44 -24 130 -69 190 -101 61 -32 175 -95 255 -140 80 -45 174 -98 210 -117 36
-20 92 -50 125 -68 102 -56 676 -345 755 -381 83 -37 483 -253 805 -434 116
-65 302 -165 415 -223 113 -58 239 -124 280 -147 41 -23 276 -142 523 -265
246 -122 449 -225 451 -229 3 -5 11 -85 22 -239 5 -74 5 -496 -1 -542 -2 -19
-6 -59 -9 -88 -3 -29 -8 -57 -11 -63 -9 -14 -32 5 -270 230 -372 353 -704 613
-1155 907 -230 150 -708 368 -940 428 -52 14 -178 44 -280 66 -102 23 -329 75
-505 116 -176 41 -453 104 -615 139 -162 36 -313 69 -335 74 -33 8 -428 92
-500 107 -17 3 -160 27 -231 39 -12 2 -48 7 -80 11 -33 4 -61 9 -64 9 -3 1
-32 5 -65 9 -33 4 -70 9 -83 11 -13 2 -56 7 -95 10 -40 4 -83 9 -97 11 -132
21 -546 21 -647 0 -11 -2 -42 -8 -67 -11 -26 -4 -49 -11 -52 -16 -7 -12 41
-30 60 -23 7 3 40 -2 72 -10 33 -8 73 -17 89 -20 17 -3 71 -17 120 -32 133
-38 212 -58 395 -99 300 -68 681 -185 810 -249 36 -18 121 -62 190 -99 69 -36
206 -102 305 -147 99 -45 207 -94 240 -110 33 -16 108 -49 166 -74 59 -25 164
-72 234 -106 70 -33 129 -60 130 -60 2 0 41 -17 87 -39 717 -334 794 -369
1148 -523 102 -45 237 -102 300 -128 63 -27 194 -83 290 -125 96 -42 218 -91
270 -110 52 -18 113 -40 135 -48 44 -17 406 -130 640 -201 83 -25 209 -59 280
-77 72 -18 131 -33 133 -34 9 -7 19 -142 28 -365 3 -85 7 -191 9 -235 4 -74 7
-337 6 -377 -2 -40 -95 -16 -212 54 -304 182 -482 281 -794 443 -176 91 -624
263 -998 384 -380 123 -672 188 -1027 230 -193 23 -311 33 -530 47 -134 9
-545 8 -669 -1 -47 -3 -126 -12 -176 -21 -192 -32 -629 -168 -848 -263 -26
-11 -49 -20 -52 -21 -33 0 -569 -311 -634 -366 -39 -34 -131 -194 -112 -194 6
0 43 15 83 34 121 56 142 64 251 85 58 12 239 66 403 120 371 124 453 143 604
145 142 1 215 -6 448 -45 199 -33 406 -81 652 -152 219 -64 462 -130 625 -171
77 -20 217 -56 310 -81 271 -74 1029 -222 1325 -260 25 -3 56 -8 70 -10 36 -6
72 -11 295 -40 110 -14 214 -27 230 -30 17 -2 59 -6 95 -10 36 -3 88 -8 115
-10 194 -19 288 -25 427 -26 70 0 130 -4 132 -8 3 -4 7 -45 10 -91 7 -89 14
-178 21 -245 14 -132 27 -318 30 -433 3 -107 0 -135 -12 -147 -22 -22 -54 -18
-119 14 -33 15 -90 38 -129 49 -111 33 -692 175 -905 222 -225 49 -720 173
-895 223 -119 35 -194 51 -270 61 -57 7 -272 20 -325 20 -54 0 -311 -14 -360
-19 -19 -2 -80 -6 -135 -10 -55 -3 -107 -8 -115 -10 -8 -2 -46 -6 -85 -10 -38
-3 -81 -8 -95 -10 -14 -2 -61 -6 -105 -10 -44 -3 -91 -8 -105 -10 -14 -2 -52
-7 -85 -10 -33 -3 -71 -7 -85 -10 -14 -2 -52 -7 -85 -10 -33 -3 -67 -8 -75
-10 -8 -2 -37 -6 -65 -10 -27 -3 -149 -21 -270 -40 -121 -20 -238 -38 -260
-41 -22 -4 -49 -8 -59 -10 -32 -6 -167 -23 -231 -29 -33 -3 -73 -8 -90 -10
-16 -2 -64 -6 -105 -10 -41 -3 -113 -9 -160 -13 -120 -10 -544 -2 -616 12 -11
2 -56 7 -99 11 -44 3 -93 8 -110 10 -16 2 -95 11 -175 20 -80 8 -172 18 -205
22 -84 9 -150 10 -171 3 -15 -6 -13 -8 11 -14 33 -8 641 -196 820 -253 61 -19
148 -43 195 -53 47 -10 130 -28 185 -40 92 -20 237 -48 360 -70 28 -5 145 -27
260 -49 116 -22 347 -65 515 -95 168 -31 341 -62 385 -71 71 -13 320 -45 461
-59 28 -3 134 -17 235 -30 101 -14 234 -30 294 -36 61 -6 124 -12 140 -15 142
-19 450 -25 665 -12 164 10 266 15 425 22 72 3 155 8 185 10 154 12 176 14
400 40 54 6 195 25 230 30 14 2 48 6 75 10 28 3 68 10 90 15 22 5 61 11 87 14
118 14 224 40 447 108 151 46 150 46 152 -37 1 -55 3 -92 13 -265 4 -63 9
-128 11 -145 14 -113 22 -166 31 -204 l5 -24 -208 8 c-114 4 -219 8 -233 10
-84 8 -168 18 -185 21 -128 26 -643 22 -815 -6 -267 -43 -603 -142 -1118 -328
-381 -138 -502 -211 -864 -524 -330 -285 -410 -345 -694 -524 -185 -116 -284
-187 -284 -204 0 -17 101 34 272 138 237 143 293 166 433 177 44 3 96 8 115
10 19 2 64 7 100 10 101 9 289 37 480 70 14 3 70 11 125 20 219 32 719 127
960 180 11 3 45 10 75 16 74 15 362 83 481 114 225 59 497 177 757 330 10 6
40 23 67 39 75 44 238 151 255 167 39 38 137 112 169 128 43 22 93 32 107 23
5 -4 9 -68 10 -147 0 -77 3 -183 7 -235 24 -328 24 -324 -63 -353 -64 -22
-101 -25 -375 -32 -115 -3 -241 -7 -280 -10 -208 -13 -242 -16 -265 -20 -14
-2 -45 -6 -70 -9 -275 -32 -457 -63 -660 -115 -83 -21 -203 -64 -305 -109 -60
-27 -139 -62 -175 -78 -101 -44 -712 -349 -798 -398 -42 -23 -124 -68 -182
-98 -196 -103 -455 -245 -520 -285 -36 -22 -92 -54 -125 -73 -33 -18 -80 -44
-105 -57 -25 -14 -92 -50 -150 -80 -58 -31 -116 -63 -130 -71 -13 -8 -108 -58
-210 -110 -259 -132 -403 -208 -490 -260 -129 -78 -302 -193 -297 -198 3 -3
49 17 103 45 107 53 245 109 504 203 185 67 392 150 490 197 36 16 144 50 240
75 96 24 227 61 290 81 282 89 460 127 820 175 138 19 173 24 230 35 14 3 39
8 55 11 17 2 38 7 47 10 19 6 52 13 88 20 308 56 1111 332 1487 510 224 105
541 306 745 469 59 47 109 85 111 85 9 0 26 -62 33 -115 3 -28 7 -138 9 -245
2 -107 6 -222 9 -255 11 -126 16 -260 21 -540 3 -159 7 -312 10 -340 4 -42 10
-242 18 -560 l2 -70 48 -3 47 -3 2 183 c1 101 1 192 0 203 -1 11 -4 47 -6 80
-3 33 -7 157 -11 275 -3 118 -8 240 -10 270 -7 98 -19 352 -31 645 -9 227 -13
565 -7 565 3 0 34 -13 69 -30 35 -16 128 -53 206 -81 79 -28 177 -69 218 -89
145 -72 384 -171 610 -252 25 -9 203 -68 395 -131 353 -116 515 -165 570 -173
76 -11 118 -18 385 -70 157 -30 310 -61 340 -69 54 -13 152 -30 240 -39 82
-10 315 -37 345 -41 35 -4 116 -12 198 -20 31 -3 81 -7 110 -10 28 -3 84 -7
122 -10 342 -24 352 -27 652 -178 100 -50 185 -88 188 -85 7 7 -185 136 -285
192 -36 20 -128 68 -205 107 -77 39 -178 93 -225 120 -47 27 -132 66 -190 87
-127 48 -322 141 -450 216 -151 88 -427 193 -660 251 -129 33 -426 91 -500
100 -30 3 -73 8 -95 10 -22 2 -71 7 -110 10 -38 3 -108 12 -155 20 -47 8 -105
17 -130 20 -25 4 -99 17 -165 30 -66 13 -136 26 -155 29 -19 3 -102 16 -185
30 -82 14 -195 30 -250 36 -55 6 -134 15 -175 20 -110 14 -149 18 -273 31
-127 12 -295 42 -395 68 -33 9 -42 17 -43 34 0 12 -2 51 -4 87 -1 36 -6 117
-10 180 -10 146 -8 323 4 347 1 0 22 -6 49 -14 125 -38 462 -101 632 -118 30
-3 71 -8 90 -10 19 -2 64 -7 100 -10 36 -3 92 -7 125 -10 55 -5 608 -19 665
-16 14 0 70 2 125 4 55 2 197 7 315 11 118 4 233 9 255 11 22 2 74 6 115 9 41
4 107 8 145 11 39 3 86 7 105 10 19 2 62 7 95 10 33 4 134 17 225 30 219 32
231 34 335 51 50 8 104 17 120 20 17 2 53 9 80 14 28 5 61 11 75 14 143 24
451 82 590 111 107 22 483 98 545 110 64 13 267 46 305 51 220 26 323 32 567
30 149 0 270 0 269 1 -5 5 -340 68 -596 113 -203 36 -244 42 -440 70 -80 11
-155 22 -167 24 -21 4 -78 9 -268 21 -44 3 -91 7 -105 10 -14 3 -144 4 -290 3
-146 -1 -440 -1 -655 0 -214 1 -574 3 -800 5 -607 3 -809 -15 -1145 -103 -63
-17 -281 -69 -485 -115 -203 -47 -419 -99 -480 -116 -60 -17 -130 -34 -155
-38 -25 -5 -105 -27 -179 -49 -125 -39 -135 -40 -162 -26 -18 9 -29 23 -30 37
0 12 -2 31 -5 42 -2 11 -7 136 -10 278 l-7 259 64 -7 c58 -5 99 -11 154 -21
29 -6 240 -17 315 -17 112 0 780 13 890 18 158 7 326 19 420 30 19 2 73 7 120
11 47 3 87 7 90 9 3 2 39 6 80 10 79 7 380 49 465 65 147 27 224 41 255 46 19
3 53 9 75 14 22 5 67 12 100 15 33 4 63 9 66 11 4 2 24 6 45 10 52 7 356 83
519 129 305 85 560 159 705 205 242 75 318 97 420 119 150 32 343 104 570 214
232 112 326 145 465 167 115 18 119 26 19 33 -49 4 -132 10 -184 14 -175 14
-767 8 -1255 -12 -60 -2 -281 -7 -490 -10 -354 -5 -506 -9 -680 -20 -59 -3
-130 -13 -305 -40 -14 -2 -59 -9 -100 -15 -41 -6 -106 -18 -145 -25 -38 -8
-205 -35 -370 -60 -369 -57 -524 -95 -687 -169 -162 -72 -265 -111 -548 -207
-129 -44 -242 -83 -250 -86 -8 -3 -112 -38 -230 -79 -118 -40 -278 -96 -355
-124 -267 -98 -271 -98 -279 -42 -17 121 -24 203 -31 397 -4 94 -8 200 -10
237 -3 79 -13 72 130 88 256 30 582 105 1084 251 907 263 876 253 1156 352
382 135 1013 387 1110 443 44 26 116 67 160 91 127 72 551 285 665 336 100 44
520 197 540 197 16 0 214 87 363 160 173 84 349 188 344 204 -2 6 -33 18 -68
27 -136 34 -189 45 -189 39 0 -4 -33 -7 -72 -6 -151 0 -431 -32 -763 -88 -49
-8 -106 -17 -125 -20 -19 -3 -57 -10 -85 -16 -27 -5 -95 -19 -150 -29 -145
-29 -326 -66 -435 -91 -52 -12 -106 -24 -120 -26 -112 -21 -488 -121 -660
-177 -248 -81 -409 -155 -650 -299 -69 -41 -199 -113 -290 -160 -91 -47 -199
-104 -240 -125 -41 -22 -138 -73 -215 -113 -457 -238 -508 -265 -545 -289 -14
-9 -41 -24 -60 -32 -19 -9 -168 -90 -330 -181 -162 -91 -340 -189 -395 -218
-55 -29 -104 -56 -110 -60 -5 -5 -27 -13 -47 -18 l-38 -10 -1 126 c-1 70 -3
136 -4 147 -1 11 -5 65 -9 120 -3 55 -9 129 -11 165 -3 36 -7 111 -10 167 l-4
103 37 9 c20 6 105 26 187 45 294 69 462 118 672 197 76 28 210 77 298 109
433 155 596 228 1315 587 630 314 698 352 1002 558 513 347 748 502 1228 810
255 163 338 228 545 427 49 47 105 99 124 116 33 28 33 30 14 40 -11 6 -22 10
-24 8 -2 -2 -21 -7 -41 -10 -79 -12 -132 -28 -329 -96 -112 -39 -463 -159
-779 -265 -608 -205 -630 -213 -975 -349 -447 -177 -802 -335 -928 -413 -21
-13 -95 -54 -165 -90 -224 -117 -367 -210 -652 -422 -202 -150 -529 -382 -685
-486 -49 -33 -92 -62 -95 -66 -5 -5 -187 -141 -395 -294 -66 -48 -160 -121
-210 -160 -94 -75 -133 -100 -142 -91 -3 3 -7 45 -9 93 -7 177 -14 330 -20
408 -3 44 -7 139 -8 212 -3 144 -4 143 57 143 78 0 640 151 934 251 477 162
802 297 1338 554 77 37 169 81 205 97 83 38 492 243 545 273 22 12 130 69 240
125 188 96 437 251 665 415 285 205 328 227 485 250 22 4 69 13 105 21 36 8
81 17 100 20 52 7 121 34 114 45 -10 17 -108 85 -190 133 -73 41 -93 48 -185
61 -65 8 -161 13 -254 10 -128 -2 -180 -9 -355 -45 -113 -22 -259 -54 -326
-70 -162 -38 -569 -161 -723 -217 -116 -43 -1021 -490 -1186 -586 -132 -77
-341 -230 -453 -332 -19 -16 -75 -61 -125 -98 -51 -37 -103 -76 -117 -87 -14
-10 -148 -111 -298 -224 -294 -223 -283 -214 -390 -307 -110 -96 -143 -119
-169 -119 l-23 0 1 143 c1 78 -2 271 -6 429 l-8 286 39 10 c21 5 102 24 179
42 181 42 484 128 655 187 481 163 1551 642 2041 913 52 29 114 64 139 77 346
192 655 397 918 610 137 111 201 152 349 224 99 48 123 64 131 86 16 49 -21
136 -83 193 -24 22 -35 25 -103 24 -42 0 -95 -3 -117 -7 -22 -3 -78 -11 -125
-17 -128 -16 -146 -19 -270 -41 -227 -40 -456 -104 -775 -217 -93 -33 -179
-64 -190 -67 -29 -10 59 46 193 123 318 180 579 332 687 400 130 81 373 256
445 322 25 23 80 73 122 111 86 79 104 117 99 202 -2 30 -47 67 -81 67 -17 0
-63 -15 -103 -34 -87 -41 -222 -87 -360 -122 -607 -153 -1263 -381 -1752 -609
-102 -48 -386 -189 -490 -245 -81 -43 -318 -186 -475 -286 -47 -30 -173 -109
-280 -176 -287 -179 -456 -297 -627 -440 -81 -67 -95 -74 -128 -62 -13 5 -15
17 -11 73 7 81 15 281 19 498 2 104 7 167 15 176 7 7 10 16 7 19 -12 12 27 27
125 48 58 12 123 28 145 35 22 7 53 16 70 20 64 14 279 97 391 151 66 31 160
76 209 99 596 282 1055 518 1301 670 241 149 670 445 736 508 7 7 69 60 138
118 177 150 391 358 407 396 28 68 3 136 -64 176 -51 29 -59 28 -303 -25 -92
-20 -405 -110 -445 -128 -11 -5 -60 -25 -110 -46 -105 -43 -375 -173 -490
-237 -224 -123 -679 -416 -969 -624 -162 -117 -491 -384 -625 -508 -23 -22
-57 -53 -75 -69 -56 -52 -280 -273 -324 -320 -24 -25 -47 -46 -50 -47 -4 0
-16 -2 -26 -4 -18 -4 -19 4 -13 193 4 108 9 215 11 237 3 22 7 81 11 130 7
117 14 156 29 180 10 14 83 43 247 99 331 111 459 166 834 352 181 91 334 169
340 173 5 4 60 34 120 66 61 32 166 90 235 128 69 39 145 81 170 95 395 221
525 313 760 537 112 107 185 173 238 216 29 22 52 46 52 53 0 6 -9 30 -20 51
-23 44 -26 65 -15 111 6 26 3 32 -22 43 -47 22 -133 25 -213 7 -265 -56 -561
-161 -760 -269 -196 -106 -661 -409 -815 -532 -49 -39 -119 -93 -155 -121
-124 -94 -445 -347 -510 -402 -77 -66 -249 -237 -340 -339 -40 -44 -76 -75
-93 -79 l-27 -6 5 78 c4 44 8 93 10 110 4 29 7 73 20 284 5 79 19 181 31 222
3 10 23 22 47 28 64 16 96 31 146 65 25 17 82 51 126 75 44 24 109 61 144 82
34 21 65 38 67 38 2 0 95 54 205 121 339 203 611 384 925 615 104 76 174 133
419 342 219 187 461 421 690 667 66 71 142 149 170 174 123 114 184 180 209
228 l26 52 -133 -67 c-72 -37 -197 -98 -277 -136 -477 -227 -557 -270 -810
-434 -77 -50 -238 -167 -250 -182 -3 -3 -34 -28 -70 -55 -97 -74 -550 -435
-589 -470 -19 -16 -39 -34 -45 -40 -6 -5 -49 -44 -96 -85 -99 -88 -163 -146
-274 -251 -45 -42 -103 -96 -131 -119 -61 -52 -179 -172 -299 -303 -49 -53
-104 -108 -123 -123 l-35 -26 7 103 c7 124 12 170 31 313 8 61 14 119 13 130
-2 39 -28 -79 -39 -174 -14 -120 -30 -210 -43 -234 -12 -24 -12 -24 -116 259
-79 213 -104 273 -182 445 -24 53 -53 118 -64 145 -49 126 -216 439 -305 572
-187 283 -544 772 -721 989 -282 346 -605 705 -620 690z m3881 -5591 c0 -5
-192 -118 -375 -220 -165 -91 -370 -224 -430 -278 -11 -10 -63 -51 -115 -91
-389 -296 -723 -556 -920 -714 -30 -24 -85 -73 -122 -107 -84 -80 -112 -98
-136 -91 -19 6 -20 18 -15 419 2 227 6 426 9 444 6 38 10 40 138 53 108 11
489 92 681 145 272 75 545 168 915 310 133 52 320 120 368 134 1 1 2 -1 2 -4z"/>
<path d="M4019 1494 c-29 -15 -57 -44 -43 -44 11 0 84 48 84 55 0 8 -13 4 -41
-11z"/>
</g>
</svg>
